#N canvas 65 81 1169 644 10;
#X obj 12 25 mrpeach/unpackOSC;
#X obj 33 293 print;
#X obj 3 90 unpack f;
#X obj 48 137 la-kitchen/catch_extremum;
#X obj 153 289 print;
#X obj 27 115 la-kitchen/count_n 1000;
#X floatatom 80 93 5 0 0 0 - - -;
#X obj 126 90 change;
#X obj 22 68 expr if(($f1==-1) \, (-1) \, 1);
#X obj 205 415 dac~;
#X obj 58 247 ftom;
#X obj 34 269 +~ 0;
#X floatatom 124 237 5 0 0 0 - - -;
#X obj 8 181 vsl 15 128 0 127 0 0 empty empty empty 0 -9 0 10 -262144
-1 -1 12700 1;
#X obj 198 183 vsl 15 128 0 127 0 0 empty empty empty 0 -9 0 10 -262144
-1 -1 259 1;
#X floatatom 140 182 5 0 0 0 - - -;
#X obj 119 204 *;
#X floatatom 49 222 5 0 0 0 - - -;
#X obj 68 175 bng 15 250 50 0 empty empty empty 17 7 0 10 -262144 -1
-1;
#X floatatom 76 203 5 0 0 0 - - -;
#X obj 45 198 *;
#X obj 45 157 expr if(($f1!=-1) \, ($f1) \, 0);
#X obj 754 443 writesf~;
#X obj 88 268 *~ \$1;
#X msg 733 395 open example_1.wav \, start;
#X msg 838 454 open example_2.wav \, start;
#X msg 873 334 stop;
#X obj 856 503 writesf~;
#X obj 847 326 bng 15 250 50 0 empty empty empty 17 7 0 10 -262144
-1 -1;
#X obj 29 336 mrpeach/unpackOSC;
#X obj 50 607 print;
#X obj 20 401 unpack f;
#X obj 65 448 la-kitchen/catch_extremum;
#X obj 170 603 print;
#X obj 44 426 la-kitchen/count_n 1000;
#X floatatom 97 404 5 0 0 0 - - -;
#X obj 143 401 change;
#X obj 39 379 expr if(($f1==-1) \, (-1) \, 1);
#X obj 75 561 ftom;
#X obj 51 583 +~ 0;
#X floatatom 141 551 5 0 0 0 - - -;
#X obj 25 495 vsl 15 128 0 127 0 0 empty empty empty 0 -9 0 10 -262144
-1 -1 12700 1;
#X obj 215 497 vsl 15 128 0 127 0 0 empty empty empty 0 -9 0 10 -262144
-1 -1 649 1;
#X floatatom 157 496 5 0 0 0 - - -;
#X obj 136 518 *;
#X floatatom 66 536 5 0 0 0 - - -;
#X obj 85 489 bng 15 250 50 0 empty empty empty 17 7 0 10 -262144 -1
-1;
#X floatatom 93 517 5 0 0 0 - - -;
#X obj 62 512 *;
#X obj 62 468 expr if(($f1!=-1) \, ($f1) \, 0);
#X obj 105 582 *~ \$1;
#X obj 238 24 mrpeach/unpackOSC;
#X obj 259 292 print;
#X obj 229 89 unpack f;
#X obj 274 136 la-kitchen/catch_extremum;
#X obj 379 288 print;
#X obj 253 114 la-kitchen/count_n 1000;
#X floatatom 306 92 5 0 0 0 - - -;
#X obj 352 89 change;
#X obj 248 67 expr if(($f1==-1) \, (-1) \, 1);
#X obj 284 246 ftom;
#X obj 260 268 +~ 0;
#X floatatom 350 236 5 0 0 0 - - -;
#X obj 234 180 vsl 15 128 0 127 0 0 empty empty empty 0 -9 0 10 -262144
-1 -1 0 1;
#X obj 424 182 vsl 15 128 0 127 0 0 empty empty empty 0 -9 0 10 -262144
-1 -1 0 1;
#X floatatom 366 181 5 0 0 0 - - -;
#X obj 345 203 *;
#X obj 239 5 mrpeach/udpreceive 9002;
#X obj 314 288 osc~ 55;
#X floatatom 275 221 5 0 0 0 - - -;
#X obj 294 174 bng 15 250 50 0 empty empty empty 17 7 0 10 -262144
-1 -1;
#X floatatom 302 202 5 0 0 0 - - -;
#X obj 271 197 *;
#X obj 271 156 expr if(($f1!=-1) \, ($f1) \, 0);
#X obj 314 267 *~ \$1;
#X obj 255 335 mrpeach/unpackOSC;
#X obj 276 606 print;
#X obj 246 400 unpack f;
#X obj 291 447 la-kitchen/catch_extremum;
#X obj 396 602 print;
#X obj 270 425 la-kitchen/count_n 1000;
#X floatatom 323 403 5 0 0 0 - - -;
#X obj 369 400 change;
#X obj 265 378 expr if(($f1==-1) \, (-1) \, 1);
#X obj 301 560 ftom;
#X obj 277 582 +~ 0;
#X floatatom 367 550 5 0 0 0 - - -;
#X obj 251 494 vsl 15 128 0 127 0 0 empty empty empty 0 -9 0 10 -262144
-1 -1 0 1;
#X obj 441 496 vsl 15 128 0 127 0 0 empty empty empty 0 -9 0 10 -262144
-1 -1 0 1;
#X floatatom 383 495 5 0 0 0 - - -;
#X obj 362 517 *;
#X obj 331 602 osc~ 55;
#X floatatom 292 535 5 0 0 0 - - -;
#X obj 311 488 bng 15 250 50 0 empty empty empty 17 7 0 10 -262144
-1 -1;
#X floatatom 319 516 5 0 0 0 - - -;
#X obj 288 511 *;
#X obj 288 467 expr if(($f1!=-1) \, ($f1) \, 0);
#X obj 331 581 *~ \$1;
#X obj 458 27 mrpeach/unpackOSC;
#X obj 479 295 print;
#X obj 449 92 unpack f;
#X obj 494 139 la-kitchen/catch_extremum;
#X obj 599 291 print;
#X obj 473 117 la-kitchen/count_n 1000;
#X floatatom 526 95 5 0 0 0 - - -;
#X obj 572 92 change;
#X obj 468 70 expr if(($f1==-1) \, (-1) \, 1);
#X obj 504 249 ftom;
#X obj 480 271 +~ 0;
#X floatatom 570 239 5 0 0 0 - - -;
#X obj 454 183 vsl 15 128 0 127 0 0 empty empty empty 0 -9 0 10 -262144
-1 -1 12700 1;
#X obj 644 185 vsl 15 128 0 127 0 0 empty empty empty 0 -9 0 10 -262144
-1 -1 314 1;
#X floatatom 586 184 5 0 0 0 - - -;
#X obj 565 206 *;
#X floatatom 495 224 5 0 0 0 - - -;
#X obj 514 177 bng 15 250 50 0 empty empty empty 17 7 0 10 -262144
-1 -1;
#X floatatom 522 205 5 0 0 0 - - -;
#X obj 491 200 *;
#X obj 491 159 expr if(($f1!=-1) \, ($f1) \, 0);
#X obj 534 270 *~ \$1;
#X obj 475 338 mrpeach/unpackOSC;
#X obj 496 609 print;
#X obj 466 403 unpack f;
#X obj 511 450 la-kitchen/catch_extremum;
#X obj 616 605 print;
#X obj 490 428 la-kitchen/count_n 1000;
#X floatatom 543 406 5 0 0 0 - - -;
#X obj 589 403 change;
#X obj 485 381 expr if(($f1==-1) \, (-1) \, 1);
#X obj 521 563 ftom;
#X obj 497 585 +~ 0;
#X floatatom 587 553 5 0 0 0 - - -;
#X obj 471 497 vsl 15 128 0 127 0 0 empty empty empty 0 -9 0 10 -262144
-1 -1 12700 1;
#X obj 661 499 vsl 15 128 0 127 0 0 empty empty empty 0 -9 0 10 -262144
-1 -1 696 1;
#X floatatom 603 498 5 0 0 0 - - -;
#X obj 582 520 *;
#X floatatom 512 538 5 0 0 0 - - -;
#X obj 531 491 bng 15 250 50 0 empty empty empty 17 7 0 10 -262144
-1 -1;
#X floatatom 539 519 5 0 0 0 - - -;
#X obj 508 514 *;
#X obj 508 470 expr if(($f1!=-1) \, ($f1) \, 0);
#X obj 551 584 *~ \$1;
#X obj 13 6 mrpeach/udpreceive 9001;
#X obj 30 317 mrpeach/udpreceive 9011;
#X obj 30 355 mrpeach/routeOSC /theta-gamma-F4;
#X obj 13 44 mrpeach/routeOSC /theta-gamma-F3;
#X obj 239 43 mrpeach/routeOSC /theta-alpha-F3;
#X obj 256 316 mrpeach/udpreceive 9012;
#X obj 256 354 mrpeach/routeOSC /theta-alpha-F4;
#X obj 459 8 mrpeach/udpreceive 9003;
#X obj 459 46 mrpeach/routeOSC /theta-beta-F3;
#X obj 476 319 mrpeach/udpreceive 9013;
#X obj 476 357 mrpeach/routeOSC /theta-beta-F4;
#X obj 534 291 osc~ 110;
#X obj 551 605 osc~ 110;
#X obj 88 289 osc~ 220;
#X obj 105 603 osc~ 220;
#X connect 0 0 145 0;
#X connect 2 0 3 0;
#X connect 2 0 5 0;
#X connect 2 0 8 0;
#X connect 3 0 21 0;
#X connect 5 0 20 0;
#X connect 6 0 5 1;
#X connect 7 0 5 2;
#X connect 8 0 7 0;
#X connect 10 0 11 0;
#X connect 10 0 23 0;
#X connect 12 0 23 1;
#X connect 12 0 14 0;
#X connect 15 0 16 1;
#X connect 16 0 12 0;
#X connect 17 0 10 0;
#X connect 17 0 13 0;
#X connect 18 0 20 0;
#X connect 18 0 16 0;
#X connect 19 0 20 1;
#X connect 20 0 17 0;
#X connect 21 0 18 0;
#X connect 21 0 16 0;
#X connect 23 0 155 0;
#X connect 24 0 22 0;
#X connect 25 0 27 0;
#X connect 26 0 27 0;
#X connect 26 0 22 0;
#X connect 28 0 24 0;
#X connect 28 0 25 0;
#X connect 29 0 144 0;
#X connect 31 0 32 0;
#X connect 31 0 34 0;
#X connect 31 0 37 0;
#X connect 32 0 49 0;
#X connect 34 0 48 0;
#X connect 35 0 34 1;
#X connect 36 0 34 2;
#X connect 37 0 36 0;
#X connect 38 0 39 0;
#X connect 38 0 50 0;
#X connect 40 0 50 1;
#X connect 40 0 42 0;
#X connect 43 0 44 1;
#X connect 44 0 40 0;
#X connect 45 0 38 0;
#X connect 45 0 41 0;
#X connect 46 0 48 0;
#X connect 46 0 44 0;
#X connect 47 0 48 1;
#X connect 48 0 45 0;
#X connect 49 0 46 0;
#X connect 49 0 44 0;
#X connect 50 0 156 0;
#X connect 51 0 146 0;
#X connect 53 0 54 0;
#X connect 53 0 56 0;
#X connect 53 0 59 0;
#X connect 54 0 73 0;
#X connect 56 0 72 0;
#X connect 57 0 56 1;
#X connect 58 0 56 2;
#X connect 59 0 58 0;
#X connect 60 0 61 0;
#X connect 60 0 74 0;
#X connect 62 0 74 1;
#X connect 62 0 64 0;
#X connect 65 0 66 1;
#X connect 66 0 62 0;
#X connect 67 0 51 0;
#X connect 69 0 60 0;
#X connect 69 0 63 0;
#X connect 70 0 72 0;
#X connect 70 0 66 0;
#X connect 71 0 72 1;
#X connect 72 0 69 0;
#X connect 73 0 70 0;
#X connect 73 0 66 0;
#X connect 74 0 68 0;
#X connect 75 0 148 0;
#X connect 77 0 78 0;
#X connect 77 0 80 0;
#X connect 77 0 83 0;
#X connect 78 0 96 0;
#X connect 80 0 95 0;
#X connect 81 0 80 1;
#X connect 82 0 80 2;
#X connect 83 0 82 0;
#X connect 84 0 85 0;
#X connect 84 0 97 0;
#X connect 86 0 97 1;
#X connect 86 0 88 0;
#X connect 89 0 90 1;
#X connect 90 0 86 0;
#X connect 92 0 84 0;
#X connect 92 0 87 0;
#X connect 93 0 95 0;
#X connect 93 0 90 0;
#X connect 94 0 95 1;
#X connect 95 0 92 0;
#X connect 96 0 93 0;
#X connect 96 0 90 0;
#X connect 97 0 91 0;
#X connect 98 0 150 0;
#X connect 100 0 101 0;
#X connect 100 0 103 0;
#X connect 100 0 106 0;
#X connect 101 0 118 0;
#X connect 103 0 117 0;
#X connect 104 0 103 1;
#X connect 105 0 103 2;
#X connect 106 0 105 0;
#X connect 107 0 108 0;
#X connect 107 0 119 0;
#X connect 109 0 119 1;
#X connect 109 0 111 0;
#X connect 112 0 113 1;
#X connect 113 0 109 0;
#X connect 114 0 107 0;
#X connect 114 0 110 0;
#X connect 115 0 117 0;
#X connect 115 0 113 0;
#X connect 116 0 117 1;
#X connect 117 0 114 0;
#X connect 118 0 115 0;
#X connect 118 0 113 0;
#X connect 119 0 153 0;
#X connect 120 0 152 0;
#X connect 122 0 123 0;
#X connect 122 0 125 0;
#X connect 122 0 128 0;
#X connect 123 0 140 0;
#X connect 125 0 139 0;
#X connect 126 0 125 1;
#X connect 127 0 125 2;
#X connect 128 0 127 0;
#X connect 129 0 130 0;
#X connect 129 0 141 0;
#X connect 131 0 141 1;
#X connect 131 0 133 0;
#X connect 134 0 135 1;
#X connect 135 0 131 0;
#X connect 136 0 129 0;
#X connect 136 0 132 0;
#X connect 137 0 139 0;
#X connect 137 0 135 0;
#X connect 138 0 139 1;
#X connect 139 0 136 0;
#X connect 140 0 137 0;
#X connect 140 0 135 0;
#X connect 141 0 154 0;
#X connect 142 0 0 0;
#X connect 143 0 29 0;
#X connect 144 0 31 0;
#X connect 145 0 2 0;
#X connect 146 0 53 0;
#X connect 147 0 75 0;
#X connect 148 0 77 0;
#X connect 149 0 98 0;
#X connect 150 0 100 0;
#X connect 151 0 120 0;
#X connect 152 0 122 0;
#X connect 155 0 9 1;
#X connect 155 0 22 0;
#X connect 156 0 9 0;
#X connect 156 0 27 0;
