#N canvas 216 137 998 428 10;
#X obj 131 51 mrpeach/unpackOSC;
#X obj 134 17 mrpeach/udpreceive 9001;
#X obj 82 278 print;
#X obj 124 118 unpack f;
#X obj 46 233 la-kitchen/catch_extremum;
#X obj 128 87 mrpeach/routeOSC /theta-gamma;
#X obj 265 283 print;
#X obj 229 224 la-kitchen/count_n 1000;
#X floatatom 216 182 5 0 0 0 - - -;
#X obj 298 173 change;
#X obj 268 124 expr if(($f1==-1) \, (-1) \, 1);
#X connect 0 0 5 0;
#X connect 1 0 0 0;
#X connect 3 0 4 0;
#X connect 3 0 7 0;
#X connect 3 0 10 0;
#X connect 4 0 2 0;
#X connect 5 0 3 0;
#X connect 7 0 6 0;
#X connect 8 0 7 1;
#X connect 9 0 7 2;
#X connect 10 0 9 0;
