#N canvas 65 225 1210 517 10;
#X obj 10 40 mrpeach/unpackOSC;
#X obj 141 42 print;
#X obj 3 107 unpack f;
#X obj 8 142 la-kitchen/catch_extremum;
#X obj 194 44 print;
#X obj 81 112 la-kitchen/count_n 1000;
#X floatatom 196 72 5 0 0 0 - - -;
#X obj 278 63 change;
#X obj 166 12 expr if(($f1==-1) \, (-1) \, 1);
#X obj 387 469 dac~;
#X obj 28 341 ftom;
#X obj 26 369 +~ 0;
#X floatatom 124 270 5 0 0 0 - - -;
#X obj 8 204 vsl 15 128 0 127 0 0 empty empty empty 0 -9 0 10 -262144
-1 -1 600 1;
#X obj 198 192 vsl 15 128 0 127 0 0 empty empty empty 0 -9 0 10 -262144
-1 -1 245 1;
#X floatatom 150 201 5 0 0 0 - - -;
#X obj 119 237 *;
#X obj 13 6 mrpeach/udpreceive 9002;
#X obj 7 76 mrpeach/routeOSC /theta-alpha;
#X obj 50 428 osc~ 55;
#X floatatom 50 271 5 0 0 0 - - -;
#X obj 71 183 bng 15 250 50 0 empty empty empty 17 7 0 10 -262144 -1
-1;
#X floatatom 73 222 5 0 0 0 - - -;
#X obj 45 239 *;
#X obj 16 164 expr if(($f1!=-1) \, ($f1) \, 0);
#X obj 679 48 mrpeach/unpackOSC;
#X obj 682 14 mrpeach/udpreceive 9001;
#X obj 676 84 mrpeach/routeOSC /theta-gamma;
#X obj 1091 44 writesf~;
#X obj 1061 3 open example.wav \, start;
#X obj 346 46 mrpeach/unpackOSC;
#X obj 477 48 print;
#X obj 339 113 unpack f;
#X obj 344 148 la-kitchen/catch_extremum;
#X obj 530 50 print;
#X obj 417 118 la-kitchen/count_n 1000;
#X floatatom 532 78 5 0 0 0 - - -;
#X obj 614 69 change;
#X obj 502 18 expr if(($f1==-1) \, (-1) \, 1);
#X obj 386 346 ftom;
#X obj 353 378 +~ 0;
#X obj 387 407 *~ \$1;
#X floatatom 460 276 5 0 0 0 - - -;
#X obj 337 231 vsl 15 128 0 127 0 0 empty empty empty 0 -9 0 10 -262144
-1 -1 12700 1;
#X obj 534 198 vsl 15 128 0 127 0 0 empty empty empty 0 -9 0 10 -262144
-1 -1 0 1;
#X floatatom 486 207 5 0 0 0 - - -;
#X obj 455 243 *;
#X floatatom 386 277 5 0 0 0 - - -;
#X obj 413 190 bng 15 250 50 0 empty empty empty 17 7 0 10 -262144
-1 -1;
#X floatatom 404 225 5 0 0 0 - - -;
#X obj 381 245 *;
#X obj 352 170 expr if(($f1!=-1) \, ($f1) \, 0);
#X obj 349 12 mrpeach/udpreceive 9003;
#X obj 343 81 mrpeach/routeOSC /theta-beta;
#X obj 815 48 print;
#X obj 677 113 unpack f;
#X obj 682 148 la-kitchen/catch_extremum;
#X obj 868 50 print;
#X obj 755 118 la-kitchen/count_n 1000;
#X floatatom 870 78 5 0 0 0 - - -;
#X obj 952 69 change;
#X obj 840 18 expr if(($f1==-1) \, (-1) \, 1);
#X obj 724 346 ftom;
#X obj 722 374 +~ 0;
#X obj 725 407 *~ \$1;
#X floatatom 798 276 5 0 0 0 - - -;
#X obj 685 221 vsl 15 128 0 127 0 0 empty empty empty 0 -9 0 10 -262144
-1 -1 12700 1;
#X obj 872 198 vsl 15 128 0 127 0 0 empty empty empty 0 -9 0 10 -262144
-1 -1 279 1;
#X floatatom 824 207 5 0 0 0 - - -;
#X obj 793 243 *;
#X floatatom 724 277 5 0 0 0 - - -;
#X obj 762 195 bng 15 250 50 0 empty empty empty 17 7 0 10 -262144
-1 -1;
#X floatatom 749 228 5 0 0 0 - - -;
#X obj 719 245 *;
#X obj 690 170 expr if(($f1!=-1) \, ($f1) \, 0);
#X obj 51 401 *~ \$1;
#X obj 386 434 osc~ 110;
#X obj 724 434 osc~ 220;
#X connect 0 0 18 0;
#X connect 2 0 3 0;
#X connect 2 0 5 0;
#X connect 2 0 8 0;
#X connect 3 0 24 0;
#X connect 5 0 23 0;
#X connect 6 0 5 1;
#X connect 7 0 5 2;
#X connect 8 0 7 0;
#X connect 10 0 11 0;
#X connect 10 0 75 0;
#X connect 12 0 75 1;
#X connect 12 0 14 0;
#X connect 15 0 16 1;
#X connect 16 0 12 0;
#X connect 17 0 0 0;
#X connect 18 0 2 0;
#X connect 20 0 10 0;
#X connect 20 0 13 0;
#X connect 21 0 23 0;
#X connect 21 0 16 0;
#X connect 22 0 23 1;
#X connect 23 0 20 0;
#X connect 24 0 21 0;
#X connect 24 0 16 0;
#X connect 25 0 27 0;
#X connect 26 0 25 0;
#X connect 27 0 55 0;
#X connect 30 0 53 0;
#X connect 32 0 33 0;
#X connect 32 0 35 0;
#X connect 32 0 38 0;
#X connect 33 0 51 0;
#X connect 35 0 50 0;
#X connect 36 0 35 1;
#X connect 37 0 35 2;
#X connect 38 0 37 0;
#X connect 39 0 40 0;
#X connect 39 0 41 0;
#X connect 41 0 76 0;
#X connect 42 0 41 1;
#X connect 42 0 44 0;
#X connect 45 0 46 1;
#X connect 46 0 42 0;
#X connect 47 0 39 0;
#X connect 47 0 43 0;
#X connect 48 0 50 0;
#X connect 48 0 46 0;
#X connect 49 0 50 1;
#X connect 50 0 47 0;
#X connect 51 0 48 0;
#X connect 51 0 46 0;
#X connect 52 0 30 0;
#X connect 53 0 32 0;
#X connect 55 0 56 0;
#X connect 55 0 58 0;
#X connect 55 0 61 0;
#X connect 56 0 74 0;
#X connect 58 0 73 0;
#X connect 59 0 58 1;
#X connect 60 0 58 2;
#X connect 61 0 60 0;
#X connect 62 0 63 0;
#X connect 63 0 64 0;
#X connect 64 0 77 0;
#X connect 65 0 64 1;
#X connect 65 0 67 0;
#X connect 68 0 69 1;
#X connect 69 0 65 0;
#X connect 70 0 62 0;
#X connect 70 0 66 0;
#X connect 71 0 73 0;
#X connect 71 0 69 0;
#X connect 72 0 73 1;
#X connect 73 0 70 0;
#X connect 74 0 69 0;
#X connect 74 0 71 0;
#X connect 75 0 19 0;
#X connect 76 0 9 0;
#X connect 77 0 9 1;
