#N canvas 65 81 1169 644 10;
#X obj 12 25 mrpeach/unpackOSC;
#X obj 33 293 print;
#X obj 3 90 unpack f;
#X obj 48 137 la-kitchen/catch_extremum;
#X obj 153 289 print;
#X obj 27 115 la-kitchen/count_n 1000;
#X floatatom 80 93 5 0 0 0 - - -;
#X obj 126 90 change;
#X obj 22 68 expr if(($f1==-1) \, (-1) \, 1);
#X obj 58 247 ftom;
#X obj 34 269 +~ 0;
#X floatatom 124 237 5 0 0 0 - - -;
#X obj 8 181 vsl 15 128 0 127 0 0 empty empty empty 0 -9 0 10 -262144
-1 -1 11000 1;
#X obj 198 183 vsl 15 128 0 127 0 0 empty empty empty 0 -9 0 10 -262144
-1 -1 100 1;
#X floatatom 140 182 5 0 0 0 - - -;
#X obj 119 204 *;
#X floatatom 49 222 5 0 0 0 - - -;
#X obj 68 175 bng 15 250 50 0 empty empty empty 17 7 0 10 -262144 -1
-1;
#X floatatom 76 203 5 0 0 0 - - -;
#X obj 45 198 *;
#X obj 45 157 expr if(($f1!=-1) \, ($f1) \, 0);
#X obj 1023 355 writesf~;
#X obj 88 268 *~ \$1;
#X msg 1002 307 open example_1.wav \, start;
#X msg 997 382 open example_2.wav \, start;
#X msg 1114 265 stop;
#X obj 1015 431 writesf~;
#X obj 1046 264 bng 15 250 50 0 empty empty empty 17 7 0 10 -262144
-1 -1;
#X obj 29 336 mrpeach/unpackOSC;
#X obj 50 607 print;
#X obj 20 401 unpack f;
#X obj 65 448 la-kitchen/catch_extremum;
#X obj 170 603 print;
#X obj 44 426 la-kitchen/count_n 1000;
#X floatatom 97 404 5 0 0 0 - - -;
#X obj 143 401 change;
#X obj 39 379 expr if(($f1==-1) \, (-1) \, 1);
#X obj 75 561 ftom;
#X obj 51 583 +~ 0;
#X floatatom 141 551 5 0 0 0 - - -;
#X obj 25 495 vsl 15 128 0 127 0 0 empty empty empty 0 -9 0 10 -262144
-1 -1 12700 1;
#X obj 215 497 vsl 15 128 0 127 0 0 empty empty empty 0 -9 0 10 -262144
-1 -1 184 1;
#X floatatom 157 496 5 0 0 0 - - -;
#X obj 136 518 *;
#X floatatom 66 536 5 0 0 0 - - -;
#X obj 85 489 bng 15 250 50 0 empty empty empty 17 7 0 10 -262144 -1
-1;
#X floatatom 93 517 5 0 0 0 - - -;
#X obj 62 512 *;
#X obj 62 468 expr if(($f1!=-1) \, ($f1) \, 0);
#X obj 105 582 *~ \$1;
#X obj 88 289 osc~ 220;
#X obj 105 603 osc~ 220;
#X obj 228 26 mrpeach/unpackOSC;
#X obj 249 294 print;
#X obj 219 91 unpack f;
#X obj 264 138 la-kitchen/catch_extremum;
#X obj 369 290 print;
#X obj 243 116 la-kitchen/count_n 1000;
#X floatatom 296 94 5 0 0 0 - - -;
#X obj 342 91 change;
#X obj 238 69 expr if(($f1==-1) \, (-1) \, 1);
#X floatatom 340 238 5 0 0 0 - - -;
#X obj 224 182 vsl 15 128 0 127 0 0 empty empty empty 0 -9 0 10 -262144
-1 -1 11000 1;
#X obj 414 184 vsl 15 128 0 127 0 0 empty empty empty 0 -9 0 10 -262144
-1 -1 9 1;
#X floatatom 356 183 5 0 0 0 - - -;
#X obj 335 205 *;
#X floatatom 266 222 5 0 0 0 - - -;
#X obj 284 176 bng 15 250 50 0 empty empty empty 17 7 0 10 -262144
-1 -1;
#X floatatom 291 199 5 0 0 0 - - -;
#X obj 261 199 *;
#X obj 261 158 expr if(($f1!=-1) \, ($f1) \, 0);
#X obj 324 294 *~ \$1;
#X obj 245 337 mrpeach/unpackOSC;
#X obj 266 608 print;
#X obj 236 402 unpack f;
#X obj 281 449 la-kitchen/catch_extremum;
#X obj 386 604 print;
#X obj 260 427 la-kitchen/count_n 1000;
#X floatatom 313 405 5 0 0 0 - - -;
#X obj 359 402 change;
#X obj 255 380 expr if(($f1==-1) \, (-1) \, 1);
#X floatatom 357 552 5 0 0 0 - - -;
#X obj 241 496 vsl 15 128 0 127 0 0 empty empty empty 0 -9 0 10 -262144
-1 -1 12700 1;
#X obj 431 498 vsl 15 128 0 127 0 0 empty empty empty 0 -9 0 10 -262144
-1 -1 4 1;
#X floatatom 373 497 5 0 0 0 - - -;
#X obj 352 519 *;
#X floatatom 282 537 5 0 0 0 - - -;
#X obj 301 490 bng 15 250 50 0 empty empty empty 17 7 0 10 -262144
-1 -1;
#X floatatom 309 518 5 0 0 0 - - -;
#X obj 278 513 *;
#X obj 278 469 expr if(($f1!=-1) \, ($f1) \, 0);
#X obj 340 615 *~ \$1;
#X obj 246 356 mrpeach/routeOSC /theta-gamma-F4;
#X obj 229 45 mrpeach/routeOSC /theta-gamma-F3;
#X obj 229 7 mrpeach/udpreceive 9101;
#X obj 246 318 mrpeach/udpreceive 9111;
#X obj 445 29 mrpeach/unpackOSC;
#X obj 466 297 print;
#X obj 436 94 unpack f;
#X obj 481 141 la-kitchen/catch_extremum;
#X obj 586 293 print;
#X obj 460 119 la-kitchen/count_n 1000;
#X floatatom 513 97 5 0 0 0 - - -;
#X obj 559 94 change;
#X obj 455 72 expr if(($f1==-1) \, (-1) \, 1);
#X obj 491 251 ftom;
#X obj 467 273 +~ 0;
#X floatatom 557 241 5 0 0 0 - - -;
#X obj 441 185 vsl 15 128 0 127 0 0 empty empty empty 0 -9 0 10 -262144
-1 -1 2200 1;
#X obj 631 187 vsl 15 128 0 127 0 0 empty empty empty 0 -9 0 10 -262144
-1 -1 169 1;
#X floatatom 573 186 5 0 0 0 - - -;
#X obj 552 208 *;
#X floatatom 482 226 5 0 0 0 - - -;
#X obj 501 179 bng 15 250 50 0 empty empty empty 17 7 0 10 -262144
-1 -1;
#X floatatom 509 207 5 0 0 0 - - -;
#X obj 478 202 *;
#X obj 478 161 expr if(($f1!=-1) \, ($f1) \, 0);
#X obj 521 272 *~ \$1;
#X obj 462 340 mrpeach/unpackOSC;
#X obj 483 611 print;
#X obj 453 405 unpack f;
#X obj 498 452 la-kitchen/catch_extremum;
#X obj 603 607 print;
#X obj 477 430 la-kitchen/count_n 1000;
#X floatatom 530 408 5 0 0 0 - - -;
#X obj 576 405 change;
#X obj 472 383 expr if(($f1==-1) \, (-1) \, 1);
#X obj 508 565 ftom;
#X obj 484 587 +~ 0;
#X floatatom 574 555 5 0 0 0 - - -;
#X obj 458 499 vsl 15 128 0 127 0 0 empty empty empty 0 -9 0 10 -262144
-1 -1 1100 1;
#X obj 648 501 vsl 15 128 0 127 0 0 empty empty empty 0 -9 0 10 -262144
-1 -1 295 1;
#X floatatom 590 500 5 0 0 0 - - -;
#X obj 569 522 *;
#X floatatom 499 540 5 0 0 0 - - -;
#X obj 518 493 bng 15 250 50 0 empty empty empty 17 7 0 10 -262144
-1 -1;
#X floatatom 526 521 5 0 0 0 - - -;
#X obj 495 516 *;
#X obj 495 472 expr if(($f1!=-1) \, ($f1) \, 0);
#X obj 538 586 *~ \$1;
#X obj 521 293 osc~ 220;
#X obj 538 607 osc~ 220;
#X obj 662 30 mrpeach/unpackOSC;
#X obj 683 298 print;
#X obj 653 95 unpack f;
#X obj 698 142 la-kitchen/catch_extremum;
#X obj 803 294 print;
#X obj 677 120 la-kitchen/count_n 1000;
#X floatatom 730 98 5 0 0 0 - - -;
#X obj 776 95 change;
#X obj 672 73 expr if(($f1==-1) \, (-1) \, 1);
#X obj 708 252 ftom;
#X obj 684 274 +~ 0;
#X floatatom 774 242 5 0 0 0 - - -;
#X obj 658 186 vsl 15 128 0 127 0 0 empty empty empty 0 -9 0 10 -262144
-1 -1 100 1;
#X obj 848 188 vsl 15 128 0 127 0 0 empty empty empty 0 -9 0 10 -262144
-1 -1 0 1;
#X floatatom 790 187 5 0 0 0 - - -;
#X obj 769 209 *;
#X floatatom 699 227 5 0 0 0 - - -;
#X obj 718 180 bng 15 250 50 0 empty empty empty 17 7 0 10 -262144
-1 -1;
#X floatatom 726 208 5 0 0 0 - - -;
#X obj 695 203 *;
#X obj 695 162 expr if(($f1!=-1) \, ($f1) \, 0);
#X obj 738 273 *~ \$1;
#X obj 679 341 mrpeach/unpackOSC;
#X obj 700 612 print;
#X obj 670 406 unpack f;
#X obj 715 453 la-kitchen/catch_extremum;
#X obj 820 608 print;
#X obj 694 431 la-kitchen/count_n 1000;
#X floatatom 747 409 5 0 0 0 - - -;
#X obj 793 406 change;
#X obj 689 384 expr if(($f1==-1) \, (-1) \, 1);
#X obj 725 566 ftom;
#X obj 701 588 +~ 0;
#X floatatom 791 556 5 0 0 0 - - -;
#X obj 675 500 vsl 15 128 0 127 0 0 empty empty empty 0 -9 0 10 -262144
-1 -1 800 1;
#X obj 865 502 vsl 15 128 0 127 0 0 empty empty empty 0 -9 0 10 -262144
-1 -1 517 1;
#X floatatom 807 501 5 0 0 0 - - -;
#X obj 786 523 *;
#X floatatom 716 541 5 0 0 0 - - -;
#X obj 735 494 bng 15 250 50 0 empty empty empty 17 7 0 10 -262144
-1 -1;
#X floatatom 743 522 5 0 0 0 - - -;
#X obj 712 517 *;
#X obj 712 473 expr if(($f1!=-1) \, ($f1) \, 0);
#X obj 755 587 *~ \$1;
#X obj 738 294 osc~ 220;
#X obj 755 608 osc~ 220;
#X obj 13 6 mrpeach/udpreceive 9001;
#X obj 13 44 mrpeach/routeOSC /theta-gamma-Fp1;
#X obj 30 317 mrpeach/udpreceive 9011;
#X obj 30 355 mrpeach/routeOSC /theta-gamma-Fp2;
#X obj 446 10 mrpeach/udpreceive 9201;
#X obj 446 48 mrpeach/routeOSC /theta-gamma-P3;
#X obj 463 322 mrpeach/udpreceive 9211;
#X obj 463 359 mrpeach/routeOSC /theta-gamma-P4;
#X obj 663 11 mrpeach/udpreceive 9301;
#X obj 664 49 mrpeach/routeOSC /theta-gamma-O1;
#X obj 680 322 mrpeach/udpreceive 9311;
#X obj 932 143 +~;
#X obj 956 475 +~;
#X obj 680 360 mrpeach/routeOSC /theta-gamma-O2;
#X obj 910 284 dac~;
#X obj 930 183 +~;
#X obj 932 235 +~;
#X obj 954 511 +~;
#X obj 950 540 +~;
#X obj 365 217 /;
#X floatatom 381 195 5 0 0 0 - - -;
#X obj 396 534 /;
#X floatatom 397 511 5 0 0 0 - - -;
#X floatatom 302 243 5 0 0 0 - - -;
#X obj 268 242 +;
#X floatatom 320 556 5 0 0 0 - - -;
#X obj 262 558 +;
#X obj 292 273 osc~;
#X obj 311 585 osc~;
#X connect 0 0 189 0;
#X connect 2 0 3 0;
#X connect 2 0 5 0;
#X connect 2 0 8 0;
#X connect 3 0 20 0;
#X connect 5 0 19 0;
#X connect 6 0 5 1;
#X connect 7 0 5 2;
#X connect 8 0 7 0;
#X connect 9 0 10 0;
#X connect 9 0 22 0;
#X connect 11 0 22 1;
#X connect 11 0 13 0;
#X connect 14 0 15 1;
#X connect 15 0 11 0;
#X connect 16 0 9 0;
#X connect 16 0 12 0;
#X connect 17 0 19 0;
#X connect 17 0 15 0;
#X connect 18 0 19 1;
#X connect 19 0 16 0;
#X connect 20 0 17 0;
#X connect 20 0 15 0;
#X connect 22 0 50 0;
#X connect 23 0 21 0;
#X connect 24 0 26 0;
#X connect 25 0 26 0;
#X connect 25 0 21 0;
#X connect 27 0 23 0;
#X connect 27 0 24 0;
#X connect 28 0 191 0;
#X connect 30 0 31 0;
#X connect 30 0 33 0;
#X connect 30 0 36 0;
#X connect 31 0 48 0;
#X connect 33 0 47 0;
#X connect 34 0 33 1;
#X connect 35 0 33 2;
#X connect 36 0 35 0;
#X connect 37 0 38 0;
#X connect 37 0 49 0;
#X connect 39 0 49 1;
#X connect 39 0 41 0;
#X connect 42 0 43 1;
#X connect 43 0 39 0;
#X connect 44 0 37 0;
#X connect 44 0 40 0;
#X connect 45 0 47 0;
#X connect 45 0 43 0;
#X connect 46 0 47 1;
#X connect 47 0 44 0;
#X connect 48 0 45 0;
#X connect 48 0 43 0;
#X connect 49 0 51 0;
#X connect 52 0 93 0;
#X connect 54 0 55 0;
#X connect 54 0 57 0;
#X connect 54 0 60 0;
#X connect 55 0 70 0;
#X connect 57 0 69 0;
#X connect 58 0 57 1;
#X connect 59 0 57 2;
#X connect 60 0 59 0;
#X connect 61 0 63 0;
#X connect 61 0 71 1;
#X connect 64 0 207 0;
#X connect 65 0 61 0;
#X connect 66 0 62 0;
#X connect 66 0 212 0;
#X connect 67 0 69 0;
#X connect 67 0 65 0;
#X connect 68 0 69 1;
#X connect 69 0 66 0;
#X connect 70 0 67 0;
#X connect 70 0 65 0;
#X connect 71 0 199 0;
#X connect 72 0 92 0;
#X connect 74 0 75 0;
#X connect 74 0 77 0;
#X connect 74 0 80 0;
#X connect 75 0 90 0;
#X connect 77 0 89 0;
#X connect 78 0 77 1;
#X connect 79 0 77 2;
#X connect 80 0 79 0;
#X connect 81 0 91 1;
#X connect 81 0 83 0;
#X connect 84 0 209 0;
#X connect 85 0 81 0;
#X connect 86 0 82 0;
#X connect 86 0 214 0;
#X connect 87 0 89 0;
#X connect 87 0 85 0;
#X connect 88 0 89 1;
#X connect 89 0 86 0;
#X connect 90 0 87 0;
#X connect 90 0 85 0;
#X connect 91 0 200 0;
#X connect 92 0 74 0;
#X connect 93 0 54 0;
#X connect 94 0 52 0;
#X connect 95 0 72 0;
#X connect 96 0 193 0;
#X connect 98 0 99 0;
#X connect 98 0 101 0;
#X connect 98 0 104 0;
#X connect 99 0 116 0;
#X connect 101 0 115 0;
#X connect 102 0 101 1;
#X connect 103 0 101 2;
#X connect 104 0 103 0;
#X connect 105 0 106 0;
#X connect 105 0 117 0;
#X connect 107 0 117 1;
#X connect 107 0 109 0;
#X connect 110 0 111 1;
#X connect 111 0 107 0;
#X connect 112 0 105 0;
#X connect 112 0 108 0;
#X connect 113 0 115 0;
#X connect 113 0 111 0;
#X connect 114 0 115 1;
#X connect 115 0 112 0;
#X connect 116 0 113 0;
#X connect 116 0 111 0;
#X connect 117 0 140 0;
#X connect 118 0 195 0;
#X connect 120 0 121 0;
#X connect 120 0 123 0;
#X connect 120 0 126 0;
#X connect 121 0 138 0;
#X connect 123 0 137 0;
#X connect 124 0 123 1;
#X connect 125 0 123 2;
#X connect 126 0 125 0;
#X connect 127 0 128 0;
#X connect 127 0 139 0;
#X connect 129 0 139 1;
#X connect 129 0 131 0;
#X connect 132 0 133 1;
#X connect 133 0 129 0;
#X connect 134 0 127 0;
#X connect 134 0 130 0;
#X connect 135 0 137 0;
#X connect 135 0 133 0;
#X connect 136 0 137 1;
#X connect 137 0 134 0;
#X connect 138 0 135 0;
#X connect 138 0 133 0;
#X connect 139 0 141 0;
#X connect 142 0 197 0;
#X connect 144 0 145 0;
#X connect 144 0 147 0;
#X connect 144 0 150 0;
#X connect 145 0 162 0;
#X connect 147 0 161 0;
#X connect 148 0 147 1;
#X connect 149 0 147 2;
#X connect 150 0 149 0;
#X connect 151 0 152 0;
#X connect 151 0 163 0;
#X connect 153 0 163 1;
#X connect 153 0 155 0;
#X connect 156 0 157 1;
#X connect 157 0 153 0;
#X connect 158 0 151 0;
#X connect 158 0 154 0;
#X connect 159 0 161 0;
#X connect 159 0 157 0;
#X connect 160 0 161 1;
#X connect 161 0 158 0;
#X connect 162 0 159 0;
#X connect 162 0 157 0;
#X connect 163 0 186 0;
#X connect 164 0 201 0;
#X connect 166 0 167 0;
#X connect 166 0 169 0;
#X connect 166 0 172 0;
#X connect 167 0 184 0;
#X connect 169 0 183 0;
#X connect 170 0 169 1;
#X connect 171 0 169 2;
#X connect 172 0 171 0;
#X connect 173 0 174 0;
#X connect 173 0 185 0;
#X connect 175 0 185 1;
#X connect 175 0 177 0;
#X connect 178 0 179 1;
#X connect 179 0 175 0;
#X connect 180 0 173 0;
#X connect 180 0 176 0;
#X connect 181 0 183 0;
#X connect 181 0 179 0;
#X connect 182 0 183 1;
#X connect 183 0 180 0;
#X connect 184 0 181 0;
#X connect 184 0 179 0;
#X connect 185 0 187 0;
#X connect 188 0 0 0;
#X connect 189 0 2 0;
#X connect 190 0 28 0;
#X connect 191 0 30 0;
#X connect 192 0 96 0;
#X connect 193 0 98 0;
#X connect 194 0 118 0;
#X connect 195 0 120 0;
#X connect 196 0 142 0;
#X connect 197 0 144 0;
#X connect 198 0 164 0;
#X connect 199 0 203 0;
#X connect 199 0 26 0;
#X connect 200 0 205 0;
#X connect 200 0 21 0;
#X connect 201 0 166 0;
#X connect 203 0 204 0;
#X connect 204 0 202 1;
#X connect 205 0 206 0;
#X connect 206 0 202 0;
#X connect 207 0 65 1;
#X connect 208 0 207 1;
#X connect 209 0 85 1;
#X connect 210 0 209 1;
#X connect 211 0 212 1;
#X connect 212 0 215 0;
#X connect 213 0 214 1;
#X connect 214 0 216 0;
#X connect 215 0 71 0;
#X connect 216 0 91 0;
