#N canvas 65 81 636 448 10;
#X obj 5 23 mrpeach/unpackOSC;
#X obj 5 62 unpack f;
#X obj 230 276 writesf~;
#X msg 241 251 open example_1.wav \, start;
#X msg 231 305 open example_2.wav \, start;
#X msg 325 229 stop;
#X obj 223 333 writesf~;
#X obj 288 229 bng 15 250 50 0 empty empty empty 17 7 0 10 -262144
-1 -1;
#X obj 410 23 mrpeach/unpackOSC;
#X obj 5 103 mrpeach/unpackOSC;
#X obj 412 101 mrpeach/unpackOSC;
#X obj 413 120 mrpeach/routeOSC /theta-gamma-F4;
#X obj 6 122 mrpeach/routeOSC /theta-gamma-F3;
#X obj 6 84 mrpeach/udpreceive 9101;
#X obj 413 82 mrpeach/udpreceive 9111;
#X obj 6 181 mrpeach/unpackOSC;
#X obj 413 178 mrpeach/unpackOSC;
#X obj 8 259 mrpeach/unpackOSC;
#X obj 414 255 mrpeach/unpackOSC;
#X obj 6 4 mrpeach/udpreceive 9001;
#X obj 6 42 mrpeach/routeOSC /theta-gamma-Fp1;
#X obj 411 4 mrpeach/udpreceive 9011;
#X obj 411 42 mrpeach/routeOSC /theta-gamma-Fp2;
#X obj 7 162 mrpeach/udpreceive 9201;
#X obj 7 200 mrpeach/routeOSC /theta-gamma-P3;
#X obj 414 160 mrpeach/udpreceive 9211;
#X obj 414 197 mrpeach/routeOSC /theta-gamma-P4;
#X obj 9 240 mrpeach/udpreceive 9301;
#X obj 10 278 mrpeach/routeOSC /theta-gamma-O1;
#X obj 415 236 mrpeach/udpreceive 9311;
#X obj 221 54 +~;
#X obj 227 156 +~;
#X obj 415 274 mrpeach/routeOSC /theta-gamma-O2;
#X obj 293 389 dac~;
#X obj 220 78 +~;
#X obj 220 102 +~;
#X obj 228 183 +~;
#X obj 229 207 +~;
#X obj 7 141 unpack f;
#X obj 8 219 unpack f;
#X obj 10 297 unpack f;
#N canvas 668 532 349 204 udp_theta_gamma_osc 1;
#X obj 15 9 inlet;
#X obj 137 79 la-kitchen/catch_extremum;
#X obj 32 48 la-kitchen/count_n 1000;
#X floatatom 138 30 5 0 0 0 - - -;
#X obj 180 60 change;
#X obj 10 54 vsl 15 128 0 127 0 0 empty empty empty 0 -9 0 10 -262144
-1 -1 0 1;
#X obj 330 60 vsl 15 128 0 127 0 0 empty empty empty 0 -9 0 10 -262144
-1 -1 0 1;
#X obj 32 169 print;
#X obj 146 170 print;
#X floatatom 130 148 5 0 0 0 - - -;
#X floatatom 169 125 5 0 0 0 - - -;
#X obj 132 125 *;
#X floatatom 38 106 5 0 0 0 - - -;
#X floatatom 76 105 5 0 0 0 - - -;
#X obj 33 84 *;
#X obj 88 149 *~ \$1;
#X obj 170 148 /;
#X floatatom 202 150 5 0 0 0 - - -;
#X floatatom 95 126 5 0 0 0 - - -;
#X obj 40 126 +;
#X obj 44 147 osc~;
#X obj 87 170 outlet~;
#X obj 58 10 inlet;
#X obj 146 9 inlet;
#X obj 186 10 inlet;
#X obj 105 9 inlet;
#X obj 37 66 spigot;
#X obj 118 79 tgl 15 0 empty empty empty 0 -6 0 8 -262144 -1 -1 0 1
;
#X msg 89 87 0;
#X obj 179 32 expr if(($f1<0) \, (-1) \, 1);
#X obj 130 101 expr if(($f1>0) \, ($f1) \, 0);
#X obj 208 172 *;
#X connect 0 0 2 0;
#X connect 0 0 1 0;
#X connect 0 0 29 0;
#X connect 1 0 27 0;
#X connect 1 0 30 0;
#X connect 2 0 26 0;
#X connect 3 0 2 1;
#X connect 4 0 2 2;
#X connect 9 0 15 1;
#X connect 10 0 16 0;
#X connect 11 0 9 0;
#X connect 12 0 19 0;
#X connect 13 0 14 1;
#X connect 13 0 31 1;
#X connect 14 0 12 0;
#X connect 15 0 21 0;
#X connect 16 0 11 1;
#X connect 17 0 31 0;
#X connect 18 0 19 1;
#X connect 19 0 20 0;
#X connect 20 0 15 0;
#X connect 22 0 13 0;
#X connect 23 0 10 0;
#X connect 24 0 17 0;
#X connect 25 0 18 0;
#X connect 26 0 28 0;
#X connect 26 0 14 0;
#X connect 27 0 26 1;
#X connect 28 0 27 0;
#X connect 29 0 4 0;
#X connect 30 0 11 0;
#X connect 31 0 16 1;
#X restore 254 98 pd udp_theta_gamma_osc;
#X obj 412 61 unpack f;
#X obj 414 139 unpack f;
#X obj 415 216 unpack f;
#X obj 416 294 unpack f;
#X floatatom 289 1 5 0 0 0 - - -;
#X floatatom 359 3 5 0 0 0 - - -;
#N canvas 670 425 353 205 udp_theta_gamma_osc 1;
#X obj 15 9 inlet;
#X obj 137 79 la-kitchen/catch_extremum;
#X obj 32 48 la-kitchen/count_n 1000;
#X floatatom 138 30 5 0 0 0 - - -;
#X obj 180 60 change;
#X obj 10 54 vsl 15 128 0 127 0 0 empty empty empty 0 -9 0 10 -262144
-1 -1 0 1;
#X obj 330 60 vsl 15 128 0 127 0 0 empty empty empty 0 -9 0 10 -262144
-1 -1 0 1;
#X obj 32 169 print;
#X obj 146 170 print;
#X floatatom 130 148 5 0 0 0 - - -;
#X floatatom 169 125 5 0 0 0 - - -;
#X obj 132 125 *;
#X floatatom 38 106 5 0 0 0 - - -;
#X floatatom 76 105 5 0 0 0 - - -;
#X obj 33 84 *;
#X obj 88 149 *~ \$1;
#X obj 170 148 /;
#X floatatom 202 150 5 0 0 0 - - -;
#X floatatom 95 126 5 0 0 0 - - -;
#X obj 40 126 +;
#X obj 44 147 osc~;
#X obj 87 170 outlet~;
#X obj 58 10 inlet;
#X obj 146 9 inlet;
#X obj 186 10 inlet;
#X obj 105 9 inlet;
#X obj 37 66 spigot;
#X obj 118 79 tgl 15 0 empty empty empty 0 -6 0 8 -262144 -1 -1 0 1
;
#X msg 89 87 0;
#X obj 179 31 expr if(($f1<0) \, (-1) \, 1);
#X obj 130 101 expr if(($f1>0) \, ($f1) \, 0);
#X obj 208 172 *;
#X connect 0 0 2 0;
#X connect 0 0 1 0;
#X connect 0 0 29 0;
#X connect 1 0 27 0;
#X connect 1 0 30 0;
#X connect 2 0 26 0;
#X connect 3 0 2 1;
#X connect 4 0 2 2;
#X connect 9 0 15 1;
#X connect 10 0 16 0;
#X connect 11 0 9 0;
#X connect 12 0 19 0;
#X connect 13 0 14 1;
#X connect 13 0 31 1;
#X connect 14 0 12 0;
#X connect 15 0 21 0;
#X connect 16 0 11 1;
#X connect 17 0 31 0;
#X connect 18 0 19 1;
#X connect 19 0 20 0;
#X connect 20 0 15 0;
#X connect 22 0 13 0;
#X connect 23 0 10 0;
#X connect 24 0 17 0;
#X connect 25 0 18 0;
#X connect 26 0 28 0;
#X connect 26 0 14 0;
#X connect 27 0 26 1;
#X connect 28 0 27 0;
#X connect 29 0 4 0;
#X connect 30 0 11 0;
#X connect 31 0 16 1;
#X restore 252 75 pd udp_theta_gamma_osc;
#N canvas 682 251 351 202 udp_theta_gamma_osc 1;
#X obj 15 9 inlet;
#X obj 137 79 la-kitchen/catch_extremum;
#X obj 32 48 la-kitchen/count_n 1000;
#X floatatom 138 30 5 0 0 0 - - -;
#X obj 180 60 change;
#X obj 10 54 vsl 15 128 0 127 0 0 empty empty empty 0 -9 0 10 -262144
-1 -1 0 1;
#X obj 330 60 vsl 15 128 0 127 0 0 empty empty empty 0 -9 0 10 -262144
-1 -1 0 1;
#X obj 32 169 print;
#X obj 146 170 print;
#X floatatom 130 148 5 0 0 0 - - -;
#X floatatom 169 125 5 0 0 0 - - -;
#X obj 132 125 *;
#X floatatom 38 106 5 0 0 0 - - -;
#X floatatom 76 105 5 0 0 0 - - -;
#X obj 33 84 *;
#X obj 88 149 *~ \$1;
#X obj 170 148 /;
#X floatatom 202 150 5 0 0 0 - - -;
#X floatatom 95 126 5 0 0 0 - - -;
#X obj 40 126 +;
#X obj 44 147 osc~;
#X obj 87 170 outlet~;
#X obj 58 10 inlet;
#X obj 146 9 inlet;
#X obj 186 10 inlet;
#X obj 105 9 inlet;
#X obj 37 66 spigot;
#X obj 118 79 tgl 15 0 empty empty empty 0 -6 0 8 -262144 -1 -1 0 1
;
#X msg 89 87 0;
#X obj 179 31 expr if(($f1<0) \, (-1) \, 1);
#X obj 130 101 expr if(($f1>0) \, ($f1) \, 0);
#X obj 208 172 *;
#X connect 0 0 2 0;
#X connect 0 0 1 0;
#X connect 0 0 29 0;
#X connect 1 0 27 0;
#X connect 1 0 30 0;
#X connect 2 0 26 0;
#X connect 3 0 2 1;
#X connect 4 0 2 2;
#X connect 9 0 15 1;
#X connect 10 0 16 0;
#X connect 11 0 9 0;
#X connect 12 0 19 0;
#X connect 13 0 14 1;
#X connect 13 0 31 1;
#X connect 14 0 12 0;
#X connect 15 0 21 0;
#X connect 16 0 11 1;
#X connect 17 0 31 0;
#X connect 18 0 19 1;
#X connect 19 0 20 0;
#X connect 20 0 15 0;
#X connect 22 0 13 0;
#X connect 23 0 10 0;
#X connect 24 0 17 0;
#X connect 25 0 18 0;
#X connect 26 0 28 0;
#X connect 26 0 14 0;
#X connect 27 0 26 1;
#X connect 28 0 27 0;
#X connect 29 0 4 0;
#X connect 30 0 11 0;
#X connect 31 0 16 1;
#X restore 251 53 pd udp_theta_gamma_osc;
#N canvas 65 527 329 197 udp_theta_gamma_osc 1;
#X obj 15 9 inlet;
#X obj 137 79 la-kitchen/catch_extremum;
#X obj 32 48 la-kitchen/count_n 1000;
#X floatatom 79 29 5 0 0 0 - - -;
#X obj 180 60 change;
#X obj 10 54 vsl 15 128 0 127 0 0 empty empty empty 0 -9 0 10 -262144
-1 -1 0 1;
#X obj 295 57 vsl 15 128 0 127 0 0 empty empty empty 0 -9 0 10 -262144
-1 -1 0 1;
#X obj 32 169 print;
#X obj 146 170 print;
#X floatatom 130 148 5 0 0 0 - - -;
#X floatatom 169 125 5 0 0 0 - - -;
#X obj 132 125 *;
#X floatatom 38 106 5 0 0 0 - - -;
#X floatatom 76 105 5 0 0 0 - - -;
#X obj 33 84 *;
#X obj 88 149 *~ \$1;
#X obj 170 148 /;
#X floatatom 202 150 5 0 0 0 - - -;
#X floatatom 95 126 5 0 0 0 - - -;
#X obj 40 126 +;
#X obj 44 147 osc~;
#X obj 87 170 outlet~;
#X obj 58 10 inlet;
#X obj 146 9 inlet;
#X obj 186 10 inlet;
#X obj 105 9 inlet;
#X obj 37 66 spigot;
#X obj 118 79 tgl 15 0 empty empty empty 0 -6 0 8 -262144 -1 -1 0 1
;
#X msg 89 87 0;
#X obj 140 30 expr if(($f1<0) \, (-1) \, 1);
#X obj 130 101 expr if(($f1>0) \, ($f1) \, 0);
#X obj 208 172 *;
#X connect 0 0 2 0;
#X connect 0 0 1 0;
#X connect 0 0 29 0;
#X connect 1 0 27 0;
#X connect 1 0 30 0;
#X connect 2 0 26 0;
#X connect 3 0 2 1;
#X connect 4 0 2 2;
#X connect 9 0 15 1;
#X connect 10 0 16 0;
#X connect 11 0 9 0;
#X connect 12 0 19 0;
#X connect 13 0 14 1;
#X connect 13 0 31 1;
#X connect 14 0 12 0;
#X connect 15 0 21 0;
#X connect 16 0 11 1;
#X connect 17 0 31 0;
#X connect 18 0 19 1;
#X connect 19 0 20 0;
#X connect 20 0 15 0;
#X connect 22 0 13 0;
#X connect 23 0 10 0;
#X connect 24 0 17 0;
#X connect 25 0 18 0;
#X connect 26 0 28 0;
#X connect 26 0 14 0;
#X connect 27 0 26 1;
#X connect 28 0 27 0;
#X connect 29 0 4 0;
#X connect 30 0 11 0;
#X connect 31 0 16 1;
#X restore 252 32 pd udp_theta_gamma_osc;
#N canvas 380 525 348 216 udp_theta_gamma_osc 1;
#X obj 15 9 inlet;
#X obj 137 79 la-kitchen/catch_extremum;
#X obj 32 48 la-kitchen/count_n 1000;
#X floatatom 138 30 5 0 0 0 - - -;
#X obj 183 59 change;
#X obj 10 54 vsl 15 128 0 127 0 0 empty empty empty 0 -9 0 10 -262144
-1 -1 0 1;
#X obj 312 53 vsl 15 128 0 127 0 0 empty empty empty 0 -9 0 10 -262144
-1 -1 0 1;
#X obj 32 169 print;
#X obj 146 170 print;
#X floatatom 130 148 5 0 0 0 - - -;
#X floatatom 169 125 5 0 0 0 - - -;
#X obj 132 125 *;
#X floatatom 38 106 5 0 0 0 - - -;
#X floatatom 76 105 5 0 0 0 - - -;
#X obj 33 84 *;
#X obj 88 149 *~ \$1;
#X obj 170 148 /;
#X floatatom 202 150 5 0 0 0 - - -;
#X floatatom 95 126 5 0 0 0 - - -;
#X obj 40 126 +;
#X obj 44 147 osc~;
#X obj 87 170 outlet~;
#X obj 58 10 inlet;
#X obj 146 9 inlet;
#X obj 186 10 inlet;
#X obj 105 9 inlet;
#X obj 37 66 spigot;
#X obj 118 79 tgl 15 0 empty empty empty 0 -6 0 8 -262144 -1 -1 0 1
;
#X msg 89 87 0;
#X obj 179 31 expr if(($f1<0) \, (-1) \, 1);
#X obj 130 101 expr if(($f1>0) \, ($f1) \, 0);
#X obj 208 172 *;
#X connect 0 0 2 0;
#X connect 0 0 1 0;
#X connect 0 0 29 0;
#X connect 1 0 27 0;
#X connect 1 0 30 0;
#X connect 2 0 26 0;
#X connect 3 0 2 1;
#X connect 4 0 2 2;
#X connect 9 0 15 1;
#X connect 10 0 16 0;
#X connect 11 0 9 0;
#X connect 12 0 19 0;
#X connect 13 0 14 1;
#X connect 13 0 31 1;
#X connect 14 0 12 0;
#X connect 15 0 21 0;
#X connect 16 0 11 1;
#X connect 17 0 31 0;
#X connect 18 0 19 1;
#X connect 19 0 20 0;
#X connect 20 0 15 0;
#X connect 22 0 13 0;
#X connect 23 0 10 0;
#X connect 24 0 17 0;
#X connect 25 0 18 0;
#X connect 26 0 28 0;
#X connect 26 0 14 0;
#X connect 27 0 26 1;
#X connect 28 0 27 0;
#X connect 29 0 4 0;
#X connect 30 0 11 0;
#X connect 31 0 16 1;
#X restore 257 206 pd udp_theta_gamma_osc;
#N canvas 384 503 354 210 udp_theta_gamma_osc 1;
#X obj 15 9 inlet;
#X obj 137 79 la-kitchen/catch_extremum;
#X obj 32 48 la-kitchen/count_n 1000;
#X floatatom 138 30 5 0 0 0 - - -;
#X obj 180 60 change;
#X obj 10 54 vsl 15 128 0 127 0 0 empty empty empty 0 -9 0 10 -262144
-1 -1 0 1;
#X obj 330 60 vsl 15 128 0 127 0 0 empty empty empty 0 -9 0 10 -262144
-1 -1 0 1;
#X obj 32 169 print;
#X obj 146 170 print;
#X floatatom 130 148 5 0 0 0 - - -;
#X floatatom 169 125 5 0 0 0 - - -;
#X obj 132 125 *;
#X floatatom 38 106 5 0 0 0 - - -;
#X floatatom 76 105 5 0 0 0 - - -;
#X obj 33 84 *;
#X obj 88 149 *~ \$1;
#X obj 170 148 /;
#X floatatom 202 150 5 0 0 0 - - -;
#X floatatom 95 126 5 0 0 0 - - -;
#X obj 40 126 +;
#X obj 44 147 osc~;
#X obj 87 170 outlet~;
#X obj 58 10 inlet;
#X obj 146 9 inlet;
#X obj 186 10 inlet;
#X obj 105 9 inlet;
#X obj 37 66 spigot;
#X obj 118 79 tgl 15 0 empty empty empty 0 -6 0 8 -262144 -1 -1 0 1
;
#X msg 89 87 0;
#X obj 179 31 expr if(($f1<0) \, (-1) \, 1);
#X obj 130 101 expr if(($f1>0) \, ($f1) \, 0);
#X obj 208 172 *;
#X connect 0 0 2 0;
#X connect 0 0 1 0;
#X connect 0 0 29 0;
#X connect 1 0 27 0;
#X connect 1 0 30 0;
#X connect 2 0 26 0;
#X connect 3 0 2 1;
#X connect 4 0 2 2;
#X connect 9 0 15 1;
#X connect 10 0 16 0;
#X connect 11 0 9 0;
#X connect 12 0 19 0;
#X connect 13 0 14 1;
#X connect 13 0 31 1;
#X connect 14 0 12 0;
#X connect 15 0 21 0;
#X connect 16 0 11 1;
#X connect 17 0 31 0;
#X connect 18 0 19 1;
#X connect 19 0 20 0;
#X connect 20 0 15 0;
#X connect 22 0 13 0;
#X connect 23 0 10 0;
#X connect 24 0 17 0;
#X connect 25 0 18 0;
#X connect 26 0 28 0;
#X connect 26 0 14 0;
#X connect 27 0 26 1;
#X connect 28 0 27 0;
#X connect 29 0 4 0;
#X connect 30 0 11 0;
#X connect 31 0 16 1;
#X restore 259 134 pd udp_theta_gamma_osc;
#N canvas 370 256 369 194 udp_theta_gamma_osc 1;
#X obj 15 9 inlet;
#X obj 137 79 la-kitchen/catch_extremum;
#X obj 32 48 la-kitchen/count_n 1000;
#X floatatom 138 30 5 0 0 0 - - -;
#X obj 180 60 change;
#X obj 10 54 vsl 15 128 0 127 0 0 empty empty empty 0 -9 0 10 -262144
-1 -1 0 1;
#X obj 330 60 vsl 15 128 0 127 0 0 empty empty empty 0 -9 0 10 -262144
-1 -1 0 1;
#X obj 32 169 print;
#X obj 146 170 print;
#X floatatom 130 148 5 0 0 0 - - -;
#X floatatom 169 125 5 0 0 0 - - -;
#X obj 132 125 *;
#X floatatom 38 106 5 0 0 0 - - -;
#X floatatom 76 105 5 0 0 0 - - -;
#X obj 33 84 *;
#X obj 88 149 *~ \$1;
#X obj 170 148 /;
#X floatatom 202 150 5 0 0 0 - - -;
#X floatatom 95 126 5 0 0 0 - - -;
#X obj 40 126 +;
#X obj 44 147 osc~;
#X obj 87 170 outlet~;
#X obj 58 10 inlet;
#X obj 146 9 inlet;
#X obj 186 10 inlet;
#X obj 105 9 inlet;
#X obj 37 66 spigot;
#X obj 118 79 tgl 15 0 empty empty empty 0 -6 0 8 -262144 -1 -1 0 1
;
#X msg 89 87 0;
#X obj 179 31 expr if(($f1<0) \, (-1) \, 1);
#X obj 130 101 expr if(($f1>0) \, ($f1) \, 0);
#X obj 208 172 *;
#X connect 0 0 2 0;
#X connect 0 0 1 0;
#X connect 0 0 29 0;
#X connect 1 0 27 0;
#X connect 1 0 30 0;
#X connect 2 0 26 0;
#X connect 3 0 2 1;
#X connect 4 0 2 2;
#X connect 9 0 15 1;
#X connect 10 0 16 0;
#X connect 11 0 9 0;
#X connect 12 0 19 0;
#X connect 13 0 14 1;
#X connect 13 0 31 1;
#X connect 14 0 12 0;
#X connect 15 0 21 0;
#X connect 16 0 11 1;
#X connect 17 0 31 0;
#X connect 18 0 19 1;
#X connect 19 0 20 0;
#X connect 20 0 15 0;
#X connect 22 0 13 0;
#X connect 23 0 10 0;
#X connect 24 0 17 0;
#X connect 25 0 18 0;
#X connect 26 0 28 0;
#X connect 26 0 14 0;
#X connect 27 0 26 1;
#X connect 28 0 27 0;
#X connect 29 0 4 0;
#X connect 30 0 11 0;
#X connect 31 0 16 1;
#X restore 259 158 pd udp_theta_gamma_osc;
#N canvas 379 434 366 204 udp_theta_gamma_osc 1;
#X obj 15 9 inlet;
#X obj 137 79 la-kitchen/catch_extremum;
#X obj 32 48 la-kitchen/count_n 1000;
#X floatatom 138 30 5 0 0 0 - - -;
#X obj 180 60 change;
#X obj 10 54 vsl 15 128 0 127 0 0 empty empty empty 0 -9 0 10 -262144
-1 -1 0 1;
#X obj 330 60 vsl 15 128 0 127 0 0 empty empty empty 0 -9 0 10 -262144
-1 -1 0 1;
#X obj 32 169 print;
#X obj 146 170 print;
#X floatatom 130 148 5 0 0 0 - - -;
#X floatatom 169 125 5 0 0 0 - - -;
#X obj 132 125 *;
#X floatatom 38 106 5 0 0 0 - - -;
#X floatatom 76 105 5 0 0 0 - - -;
#X obj 33 84 *;
#X obj 88 149 *~ \$1;
#X obj 170 148 /;
#X floatatom 202 150 5 0 0 0 - - -;
#X floatatom 95 126 5 0 0 0 - - -;
#X obj 40 126 +;
#X obj 44 147 osc~;
#X obj 87 170 outlet~;
#X obj 58 10 inlet;
#X obj 146 9 inlet;
#X obj 186 10 inlet;
#X obj 105 9 inlet;
#X obj 37 66 spigot;
#X obj 118 79 tgl 15 0 empty empty empty 0 -6 0 8 -262144 -1 -1 0 1
;
#X msg 89 87 0;
#X obj 179 31 expr if(($f1<0) \, (-1) \, 1);
#X obj 130 101 expr if(($f1>0) \, ($f1) \, 0);
#X obj 208 172 *;
#X connect 0 0 2 0;
#X connect 0 0 1 0;
#X connect 0 0 29 0;
#X connect 1 0 27 0;
#X connect 1 0 30 0;
#X connect 2 0 26 0;
#X connect 3 0 2 1;
#X connect 4 0 2 2;
#X connect 9 0 15 1;
#X connect 10 0 16 0;
#X connect 11 0 9 0;
#X connect 12 0 19 0;
#X connect 13 0 14 1;
#X connect 13 0 31 1;
#X connect 14 0 12 0;
#X connect 15 0 21 0;
#X connect 16 0 11 1;
#X connect 17 0 31 0;
#X connect 18 0 19 1;
#X connect 19 0 20 0;
#X connect 20 0 15 0;
#X connect 22 0 13 0;
#X connect 23 0 10 0;
#X connect 24 0 17 0;
#X connect 25 0 18 0;
#X connect 26 0 28 0;
#X connect 26 0 14 0;
#X connect 27 0 26 1;
#X connect 28 0 27 0;
#X connect 29 0 4 0;
#X connect 30 0 11 0;
#X connect 31 0 16 1;
#X restore 258 181 pd udp_theta_gamma_osc;
#X floatatom 98 63 5 0 0 0 - - -;
#X floatatom 170 62 5 0 0 0 - - -;
#X floatatom 98 141 5 0 0 0 - - -;
#X floatatom 167 142 5 0 0 0 - - -;
#X floatatom 97 220 5 0 0 0 - - -;
#X floatatom 171 219 5 0 0 0 - - -;
#X floatatom 99 297 5 0 0 0 - - -;
#X floatatom 170 297 5 0 0 0 - - -;
#X floatatom 502 61 5 0 0 0 - - -;
#X floatatom 573 61 5 0 0 0 - - -;
#X floatatom 505 139 5 0 0 0 - - -;
#X floatatom 575 140 5 0 0 0 - - -;
#X floatatom 509 216 5 0 0 0 - - -;
#X floatatom 578 217 5 0 0 0 - - -;
#X floatatom 505 294 5 0 0 0 - - -;
#X floatatom 577 294 5 0 0 0 - - -;
#X floatatom 117 340 5 0 0 0 - - -;
#X floatatom 156 340 5 0 0 0 - - -;
#X floatatom 45 340 5 0 0 0 - - -;
#X floatatom 82 340 5 0 0 0 - - -;
#N canvas 322 526 354 197 udp_theta_osc 1;
#X obj 15 9 inlet;
#X obj 163 82 la-kitchen/catch_extremum;
#X obj 32 59 la-kitchen/count_n 1000;
#X floatatom 126 35 5 0 0 0 - - -;
#X obj 180 60 change;
#X obj 10 54 vsl 15 128 0 127 0 0 empty empty empty 0 -9 0 10 -262144
-1 -1 0 1;
#X obj 330 60 vsl 15 128 0 127 0 0 empty empty empty 0 -9 0 10 -262144
-1 -1 0 1;
#X obj 38 175 print;
#X obj 146 170 print;
#X floatatom 130 148 5 0 0 0 - - -;
#X floatatom 169 125 5 0 0 0 - - -;
#X obj 132 125 *;
#X floatatom 46 105 5 0 0 0 - - -;
#X floatatom 63 33 5 0 0 0 - - -;
#X obj 88 149 *~ \$1;
#X obj 170 148 /;
#X floatatom 202 150 5 0 0 0 - - -;
#X floatatom 76 128 5 0 0 0 - - -;
#X obj 40 126 +;
#X obj 44 147 osc~;
#X obj 87 170 outlet~;
#X obj 58 10 inlet;
#X obj 146 9 inlet;
#X obj 186 10 inlet;
#X obj 105 9 inlet;
#X obj 32 82 expr $f2/$f1;
#X obj 120 87 f;
#X obj 170 35 expr if(($f1<0) \, (-1) \, 1);
#X obj 230 131 spigot;
#X obj 308 142 tgl 15 0 empty empty empty 0 -6 0 8 -262144 -1 -1 0
1;
#X msg 279 150 0;
#X obj 146 105 expr if(($f1<0) \, (-$f1) \, 0);
#X connect 0 0 2 0;
#X connect 0 0 27 0;
#X connect 0 0 1 0;
#X connect 1 1 31 0;
#X connect 1 1 29 0;
#X connect 2 0 28 0;
#X connect 3 0 2 1;
#X connect 4 0 2 2;
#X connect 9 0 14 1;
#X connect 10 0 15 0;
#X connect 11 0 9 0;
#X connect 12 0 18 0;
#X connect 13 0 26 0;
#X connect 14 0 20 0;
#X connect 15 0 11 1;
#X connect 16 0 15 1;
#X connect 17 0 18 1;
#X connect 18 0 19 0;
#X connect 19 0 14 0;
#X connect 21 0 13 0;
#X connect 22 0 10 0;
#X connect 23 0 16 0;
#X connect 24 0 17 0;
#X connect 25 0 12 0;
#X connect 26 0 25 1;
#X connect 27 0 4 0;
#X connect 28 0 30 0;
#X connect 28 0 25 0;
#X connect 29 0 28 1;
#X connect 30 0 29 0;
#X connect 31 0 11 0;
#X restore 43 361 pd udp_theta_osc;
#X obj 14 360 +~;
#X floatatom 513 335 5 0 0 0 - - -;
#X floatatom 552 335 5 0 0 0 - - -;
#X floatatom 443 335 5 0 0 0 - - -;
#X floatatom 477 335 5 0 0 0 - - -;
#N canvas 650 90 545 197 udp_theta_osc 1;
#X obj 15 9 inlet;
#X obj 160 84 la-kitchen/catch_extremum;
#X obj 29 58 la-kitchen/count_n 1000;
#X floatatom 126 35 5 0 0 0 - - -;
#X obj 180 60 change;
#X obj 10 54 vsl 15 128 0 127 0 0 empty empty empty 0 -9 0 10 -262144
-1 -1 0 1;
#X obj 330 60 vsl 15 128 0 127 0 0 empty empty empty 0 -9 0 10 -262144
-1 -1 0 1;
#X obj 32 169 print;
#X obj 146 170 print;
#X floatatom 130 148 5 0 0 0 - - -;
#X floatatom 169 125 5 0 0 0 - - -;
#X obj 132 125 *;
#X floatatom 38 106 5 0 0 0 - - -;
#X floatatom 61 36 5 0 0 0 - - -;
#X obj 88 149 *~ \$1;
#X obj 170 148 /;
#X floatatom 202 150 5 0 0 0 - - -;
#X floatatom 76 128 5 0 0 0 - - -;
#X obj 40 126 +;
#X obj 44 147 osc~;
#X obj 87 170 outlet~;
#X obj 58 10 inlet;
#X obj 146 9 inlet;
#X obj 186 10 inlet;
#X obj 105 9 inlet;
#X obj 123 87 f;
#X obj 33 83 expr $f2/$f1;
#X obj 170 35 expr if(($f1<0) \, (-1) \, 1);
#X obj 364 69 spigot;
#X obj 445 82 tgl 15 0 empty empty empty 0 -6 0 8 -262144 -1 -1 0 1
;
#X msg 416 90 0;
#X obj 152 106 expr if(($f1<0) \, (-$f1) \, 0);
#X connect 0 0 2 0;
#X connect 0 0 27 0;
#X connect 0 0 1 0;
#X connect 1 1 31 0;
#X connect 1 1 29 0;
#X connect 2 0 28 0;
#X connect 3 0 2 1;
#X connect 4 0 2 2;
#X connect 9 0 14 1;
#X connect 10 0 15 0;
#X connect 11 0 9 0;
#X connect 12 0 18 0;
#X connect 13 0 25 0;
#X connect 14 0 20 0;
#X connect 15 0 11 1;
#X connect 16 0 15 1;
#X connect 17 0 18 1;
#X connect 18 0 19 0;
#X connect 19 0 14 0;
#X connect 21 0 13 0;
#X connect 22 0 10 0;
#X connect 23 0 16 0;
#X connect 24 0 17 0;
#X connect 25 0 26 1;
#X connect 26 0 12 0;
#X connect 27 0 4 0;
#X connect 28 0 30 0;
#X connect 28 0 26 0;
#X connect 29 0 28 1;
#X connect 30 0 29 0;
#X connect 31 0 11 0;
#X restore 439 356 pd udp_theta_osc;
#X obj 410 355 +~;
#X msg 137 61 440;
#X msg 65 63 8;
#X msg 68 141 4;
#X msg 135 141 220;
#X msg 66 220 2;
#X msg 134 220 110;
#X msg 67 298 1;
#X msg 138 298 55;
#X msg 121 320 1;
#X msg 482 317 0;
#X msg 518 316 1;
#X msg 544 293 55;
#X msg 474 294 1;
#X msg 476 217 2;
#X msg 549 216 110;
#X msg 544 139 220;
#X msg 473 140 4;
#X msg 471 62 8;
#X msg 540 61 440;
#X msg 247 9 1;
#X msg 329 4 30;
#X obj 314 363 bng 15 250 50 0 empty empty empty 17 7 0 10 -262144
-1 -1;
#X msg 160 319 30;
#X msg 87 320 0;
#X msg 552 316 30;
#X msg 49 319 1024;
#X msg 442 316 1024;
#N canvas 650 90 545 197 udp_theta_osc 1;
#X obj 15 9 inlet;
#X obj 160 84 la-kitchen/catch_extremum;
#X obj 29 58 la-kitchen/count_n 1000;
#X floatatom 126 35 5 0 0 0 - - -;
#X obj 180 60 change;
#X obj 10 54 vsl 15 128 0 127 0 0 empty empty empty 0 -9 0 10 -262144
-1 -1 0 1;
#X obj 330 60 vsl 15 128 0 127 0 0 empty empty empty 0 -9 0 10 -262144
-1 -1 0 1;
#X obj 32 169 print;
#X obj 146 170 print;
#X floatatom 130 148 5 0 0 0 - - -;
#X floatatom 169 125 5 0 0 0 - - -;
#X obj 132 125 *;
#X floatatom 38 106 5 0 0 0 - - -;
#X floatatom 61 36 5 0 0 0 - - -;
#X obj 88 149 *~ \$1;
#X obj 170 148 /;
#X floatatom 202 150 5 0 0 0 - - -;
#X floatatom 76 128 5 0 0 0 - - -;
#X obj 40 126 +;
#X obj 44 147 osc~;
#X obj 87 170 outlet~;
#X obj 58 10 inlet;
#X obj 146 9 inlet;
#X obj 186 10 inlet;
#X obj 105 9 inlet;
#X obj 123 87 f;
#X obj 33 83 expr $f2/$f1;
#X obj 170 35 expr if(($f1<0) \, (-1) \, 1);
#X obj 364 69 spigot;
#X obj 445 82 tgl 15 0 empty empty empty 0 -6 0 8 -262144 -1 -1 0 1
;
#X msg 416 90 0;
#X obj 152 106 expr if(($f1<0) \, (-$f1) \, 0);
#X connect 0 0 2 0;
#X connect 0 0 27 0;
#X connect 0 0 1 0;
#X connect 1 1 31 0;
#X connect 1 1 29 0;
#X connect 2 0 28 0;
#X connect 3 0 2 1;
#X connect 4 0 2 2;
#X connect 9 0 14 1;
#X connect 10 0 15 0;
#X connect 11 0 9 0;
#X connect 12 0 18 0;
#X connect 13 0 25 0;
#X connect 14 0 20 0;
#X connect 15 0 11 1;
#X connect 16 0 15 1;
#X connect 17 0 18 1;
#X connect 18 0 19 0;
#X connect 19 0 14 0;
#X connect 21 0 13 0;
#X connect 22 0 10 0;
#X connect 23 0 16 0;
#X connect 24 0 17 0;
#X connect 25 0 26 1;
#X connect 26 0 12 0;
#X connect 27 0 4 0;
#X connect 28 0 30 0;
#X connect 28 0 26 0;
#X connect 29 0 28 1;
#X connect 30 0 29 0;
#X connect 31 0 11 0;
#X restore 439 376 pd udp_theta_osc;
#X obj 410 375 +~;
#N canvas 650 90 545 197 udp_theta_osc 1;
#X obj 15 9 inlet;
#X obj 160 84 la-kitchen/catch_extremum;
#X obj 29 58 la-kitchen/count_n 1000;
#X floatatom 126 35 5 0 0 0 - - -;
#X obj 180 60 change;
#X obj 10 54 vsl 15 128 0 127 0 0 empty empty empty 0 -9 0 10 -262144
-1 -1 0 1;
#X obj 330 60 vsl 15 128 0 127 0 0 empty empty empty 0 -9 0 10 -262144
-1 -1 0 1;
#X obj 32 169 print;
#X obj 146 170 print;
#X floatatom 130 148 5 0 0 0 - - -;
#X floatatom 169 125 5 0 0 0 - - -;
#X obj 132 125 *;
#X floatatom 38 106 5 0 0 0 - - -;
#X floatatom 61 36 5 0 0 0 - - -;
#X obj 88 149 *~ \$1;
#X obj 170 148 /;
#X floatatom 202 150 5 0 0 0 - - -;
#X floatatom 76 128 5 0 0 0 - - -;
#X obj 40 126 +;
#X obj 44 147 osc~;
#X obj 87 170 outlet~;
#X obj 58 10 inlet;
#X obj 146 9 inlet;
#X obj 186 10 inlet;
#X obj 105 9 inlet;
#X obj 123 87 f;
#X obj 33 83 expr $f2/$f1;
#X obj 170 35 expr if(($f1<0) \, (-1) \, 1);
#X obj 364 69 spigot;
#X obj 445 82 tgl 15 0 empty empty empty 0 -6 0 8 -262144 -1 -1 0 1
;
#X msg 416 90 0;
#X obj 152 106 expr if(($f1<0) \, (-$f1) \, 0);
#X connect 0 0 2 0;
#X connect 0 0 27 0;
#X connect 0 0 1 0;
#X connect 1 1 31 0;
#X connect 1 1 29 0;
#X connect 2 0 28 0;
#X connect 3 0 2 1;
#X connect 4 0 2 2;
#X connect 9 0 14 1;
#X connect 10 0 15 0;
#X connect 11 0 9 0;
#X connect 12 0 18 0;
#X connect 13 0 25 0;
#X connect 14 0 20 0;
#X connect 15 0 11 1;
#X connect 16 0 15 1;
#X connect 17 0 18 1;
#X connect 18 0 19 0;
#X connect 19 0 14 0;
#X connect 21 0 13 0;
#X connect 22 0 10 0;
#X connect 23 0 16 0;
#X connect 24 0 17 0;
#X connect 25 0 26 1;
#X connect 26 0 12 0;
#X connect 27 0 4 0;
#X connect 28 0 30 0;
#X connect 28 0 26 0;
#X connect 29 0 28 1;
#X connect 30 0 29 0;
#X connect 31 0 11 0;
#X restore 439 396 pd udp_theta_osc;
#X obj 410 395 +~;
#N canvas 650 90 545 197 udp_theta_osc 1;
#X obj 15 9 inlet;
#X obj 160 84 la-kitchen/catch_extremum;
#X obj 29 58 la-kitchen/count_n 1000;
#X floatatom 126 35 5 0 0 0 - - -;
#X obj 180 60 change;
#X obj 10 54 vsl 15 128 0 127 0 0 empty empty empty 0 -9 0 10 -262144
-1 -1 0 1;
#X obj 330 60 vsl 15 128 0 127 0 0 empty empty empty 0 -9 0 10 -262144
-1 -1 0 1;
#X obj 32 169 print;
#X obj 146 170 print;
#X floatatom 130 148 5 0 0 0 - - -;
#X floatatom 169 125 5 0 0 0 - - -;
#X obj 132 125 *;
#X floatatom 38 106 5 0 0 0 - - -;
#X floatatom 61 36 5 0 0 0 - - -;
#X obj 88 149 *~ \$1;
#X obj 170 148 /;
#X floatatom 202 150 5 0 0 0 - - -;
#X floatatom 76 128 5 0 0 0 - - -;
#X obj 40 126 +;
#X obj 44 147 osc~;
#X obj 87 170 outlet~;
#X obj 58 10 inlet;
#X obj 146 9 inlet;
#X obj 186 10 inlet;
#X obj 105 9 inlet;
#X obj 123 87 f;
#X obj 33 83 expr $f2/$f1;
#X obj 170 35 expr if(($f1<0) \, (-1) \, 1);
#X obj 364 69 spigot;
#X obj 445 82 tgl 15 0 empty empty empty 0 -6 0 8 -262144 -1 -1 0 1
;
#X msg 416 90 0;
#X obj 152 106 expr if(($f1<0) \, (-$f1) \, 0);
#X connect 0 0 2 0;
#X connect 0 0 27 0;
#X connect 0 0 1 0;
#X connect 1 1 31 0;
#X connect 1 1 29 0;
#X connect 2 0 28 0;
#X connect 3 0 2 1;
#X connect 4 0 2 2;
#X connect 9 0 14 1;
#X connect 10 0 15 0;
#X connect 11 0 9 0;
#X connect 12 0 18 0;
#X connect 13 0 25 0;
#X connect 14 0 20 0;
#X connect 15 0 11 1;
#X connect 16 0 15 1;
#X connect 17 0 18 1;
#X connect 18 0 19 0;
#X connect 19 0 14 0;
#X connect 21 0 13 0;
#X connect 22 0 10 0;
#X connect 23 0 16 0;
#X connect 24 0 17 0;
#X connect 25 0 26 1;
#X connect 26 0 12 0;
#X connect 27 0 4 0;
#X connect 28 0 30 0;
#X connect 28 0 26 0;
#X connect 29 0 28 1;
#X connect 30 0 29 0;
#X connect 31 0 11 0;
#X restore 439 415 pd udp_theta_osc;
#X obj 410 414 +~;
#N canvas 640 81 545 197 udp_theta_osc 1;
#X obj 15 9 inlet;
#X obj 160 84 la-kitchen/catch_extremum;
#X obj 29 58 la-kitchen/count_n 1000;
#X floatatom 126 35 5 0 0 0 - - -;
#X obj 180 60 change;
#X obj 10 54 vsl 15 128 0 127 0 0 empty empty empty 0 -9 0 10 -262144
-1 -1 0 1;
#X obj 330 60 vsl 15 128 0 127 0 0 empty empty empty 0 -9 0 10 -262144
-1 -1 0 1;
#X obj 32 169 print;
#X obj 146 170 print;
#X floatatom 130 148 5 0 0 0 - - -;
#X floatatom 169 125 5 0 0 0 - - -;
#X obj 132 125 *;
#X floatatom 38 106 5 0 0 0 - - -;
#X floatatom 61 36 5 0 0 0 - - -;
#X obj 88 149 *~ \$1;
#X obj 170 148 /;
#X floatatom 202 150 5 0 0 0 - - -;
#X floatatom 76 128 5 0 0 0 - - -;
#X obj 40 126 +;
#X obj 44 147 osc~;
#X obj 87 170 outlet~;
#X obj 58 10 inlet;
#X obj 146 9 inlet;
#X obj 186 10 inlet;
#X obj 105 9 inlet;
#X obj 123 87 f;
#X obj 33 83 expr $f2/$f1;
#X obj 170 35 expr if(($f1<0) \, (-1) \, 1);
#X obj 364 69 spigot;
#X obj 445 82 tgl 15 0 empty empty empty 0 -6 0 8 -262144 -1 -1 0 1
;
#X msg 416 90 0;
#X obj 152 106 expr if(($f1<0) \, (-$f1) \, 0);
#X connect 0 0 2 0;
#X connect 0 0 27 0;
#X connect 0 0 1 0;
#X connect 1 1 31 0;
#X connect 1 1 29 0;
#X connect 2 0 28 0;
#X connect 3 0 2 1;
#X connect 4 0 2 2;
#X connect 9 0 14 1;
#X connect 10 0 15 0;
#X connect 11 0 9 0;
#X connect 12 0 18 0;
#X connect 13 0 25 0;
#X connect 14 0 20 0;
#X connect 15 0 11 1;
#X connect 16 0 15 1;
#X connect 17 0 18 1;
#X connect 18 0 19 0;
#X connect 19 0 14 0;
#X connect 21 0 13 0;
#X connect 22 0 10 0;
#X connect 23 0 16 0;
#X connect 24 0 17 0;
#X connect 25 0 26 1;
#X connect 26 0 12 0;
#X connect 27 0 4 0;
#X connect 28 0 30 0;
#X connect 28 0 26 0;
#X connect 29 0 28 1;
#X connect 30 0 29 0;
#X connect 31 0 11 0;
#X restore 44 380 pd udp_theta_osc;
#X obj 15 379 +~;
#N canvas 650 90 545 197 udp_theta_osc 1;
#X obj 15 9 inlet;
#X obj 160 84 la-kitchen/catch_extremum;
#X obj 29 58 la-kitchen/count_n 1000;
#X floatatom 126 35 5 0 0 0 - - -;
#X obj 180 60 change;
#X obj 10 54 vsl 15 128 0 127 0 0 empty empty empty 0 -9 0 10 -262144
-1 -1 0 1;
#X obj 330 60 vsl 15 128 0 127 0 0 empty empty empty 0 -9 0 10 -262144
-1 -1 0 1;
#X obj 32 169 print;
#X obj 146 170 print;
#X floatatom 130 148 5 0 0 0 - - -;
#X floatatom 169 125 5 0 0 0 - - -;
#X obj 132 125 *;
#X floatatom 38 106 5 0 0 0 - - -;
#X floatatom 61 36 5 0 0 0 - - -;
#X obj 88 149 *~ \$1;
#X obj 170 148 /;
#X floatatom 202 150 5 0 0 0 - - -;
#X floatatom 76 128 5 0 0 0 - - -;
#X obj 40 126 +;
#X obj 44 147 osc~;
#X obj 87 170 outlet~;
#X obj 58 10 inlet;
#X obj 146 9 inlet;
#X obj 186 10 inlet;
#X obj 105 9 inlet;
#X obj 123 87 f;
#X obj 33 83 expr $f2/$f1;
#X obj 170 35 expr if(($f1<0) \, (-1) \, 1);
#X obj 364 69 spigot;
#X obj 445 82 tgl 15 0 empty empty empty 0 -6 0 8 -262144 -1 -1 0 1
;
#X msg 416 90 0;
#X obj 152 106 expr if(($f1<0) \, (-$f1) \, 0);
#X connect 0 0 2 0;
#X connect 0 0 27 0;
#X connect 0 0 1 0;
#X connect 1 1 31 0;
#X connect 1 1 29 0;
#X connect 2 0 28 0;
#X connect 3 0 2 1;
#X connect 4 0 2 2;
#X connect 9 0 14 1;
#X connect 10 0 15 0;
#X connect 11 0 9 0;
#X connect 12 0 18 0;
#X connect 13 0 25 0;
#X connect 14 0 20 0;
#X connect 15 0 11 1;
#X connect 16 0 15 1;
#X connect 17 0 18 1;
#X connect 18 0 19 0;
#X connect 19 0 14 0;
#X connect 21 0 13 0;
#X connect 22 0 10 0;
#X connect 23 0 16 0;
#X connect 24 0 17 0;
#X connect 25 0 26 1;
#X connect 26 0 12 0;
#X connect 27 0 4 0;
#X connect 28 0 30 0;
#X connect 28 0 26 0;
#X connect 29 0 28 1;
#X connect 30 0 29 0;
#X connect 31 0 11 0;
#X restore 44 399 pd udp_theta_osc;
#X obj 15 398 +~;
#N canvas 650 90 545 197 udp_theta_osc 1;
#X obj 15 9 inlet;
#X obj 160 84 la-kitchen/catch_extremum;
#X obj 29 58 la-kitchen/count_n 1000;
#X floatatom 126 35 5 0 0 0 - - -;
#X obj 180 60 change;
#X obj 10 54 vsl 15 128 0 127 0 0 empty empty empty 0 -9 0 10 -262144
-1 -1 0 1;
#X obj 330 60 vsl 15 128 0 127 0 0 empty empty empty 0 -9 0 10 -262144
-1 -1 0 1;
#X obj 32 169 print;
#X obj 146 170 print;
#X floatatom 130 148 5 0 0 0 - - -;
#X floatatom 169 125 5 0 0 0 - - -;
#X obj 132 125 *;
#X floatatom 38 106 5 0 0 0 - - -;
#X floatatom 61 36 5 0 0 0 - - -;
#X obj 88 149 *~ \$1;
#X obj 170 148 /;
#X floatatom 202 150 5 0 0 0 - - -;
#X floatatom 76 128 5 0 0 0 - - -;
#X obj 40 126 +;
#X obj 44 147 osc~;
#X obj 87 170 outlet~;
#X obj 58 10 inlet;
#X obj 146 9 inlet;
#X obj 186 10 inlet;
#X obj 105 9 inlet;
#X obj 123 87 f;
#X obj 33 83 expr $f2/$f1;
#X obj 170 35 expr if(($f1<0) \, (-1) \, 1);
#X obj 364 69 spigot;
#X obj 445 82 tgl 15 0 empty empty empty 0 -6 0 8 -262144 -1 -1 0 1
;
#X msg 416 90 0;
#X obj 152 106 expr if(($f1<0) \, (-$f1) \, 0);
#X connect 0 0 2 0;
#X connect 0 0 27 0;
#X connect 0 0 1 0;
#X connect 1 1 31 0;
#X connect 1 1 29 0;
#X connect 2 0 28 0;
#X connect 3 0 2 1;
#X connect 4 0 2 2;
#X connect 9 0 14 1;
#X connect 10 0 15 0;
#X connect 11 0 9 0;
#X connect 12 0 18 0;
#X connect 13 0 25 0;
#X connect 14 0 20 0;
#X connect 15 0 11 1;
#X connect 16 0 15 1;
#X connect 17 0 18 1;
#X connect 18 0 19 0;
#X connect 19 0 14 0;
#X connect 21 0 13 0;
#X connect 22 0 10 0;
#X connect 23 0 16 0;
#X connect 24 0 17 0;
#X connect 25 0 26 1;
#X connect 26 0 12 0;
#X connect 27 0 4 0;
#X connect 28 0 30 0;
#X connect 28 0 26 0;
#X connect 29 0 28 1;
#X connect 30 0 29 0;
#X connect 31 0 11 0;
#X restore 44 419 pd udp_theta_osc;
#X obj 15 418 +~;
#X connect 0 0 20 0;
#X connect 1 0 75 0;
#X connect 1 0 50 0;
#X connect 3 0 2 0;
#X connect 4 0 6 0;
#X connect 5 0 6 0;
#X connect 5 0 2 0;
#X connect 7 0 3 0;
#X connect 7 0 4 0;
#X connect 8 0 22 0;
#X connect 9 0 12 0;
#X connect 10 0 11 0;
#X connect 11 0 43 0;
#X connect 12 0 38 0;
#X connect 13 0 9 0;
#X connect 14 0 10 0;
#X connect 15 0 24 0;
#X connect 16 0 26 0;
#X connect 17 0 28 0;
#X connect 18 0 32 0;
#X connect 19 0 0 0;
#X connect 20 0 1 0;
#X connect 21 0 8 0;
#X connect 22 0 42 0;
#X connect 23 0 15 0;
#X connect 24 0 39 0;
#X connect 25 0 16 0;
#X connect 26 0 44 0;
#X connect 27 0 17 0;
#X connect 28 0 40 0;
#X connect 29 0 18 0;
#X connect 30 0 34 0;
#X connect 31 0 36 0;
#X connect 32 0 45 0;
#X connect 34 0 35 0;
#X connect 35 0 76 0;
#X connect 36 0 37 0;
#X connect 37 0 82 0;
#X connect 38 0 49 0;
#X connect 38 0 116 0;
#X connect 39 0 48 0;
#X connect 39 0 118 0;
#X connect 40 0 41 0;
#X connect 40 0 120 0;
#X connect 41 0 35 1;
#X connect 42 0 81 0;
#X connect 42 0 52 0;
#X connect 43 0 53 0;
#X connect 43 0 110 0;
#X connect 44 0 54 0;
#X connect 44 0 112 0;
#X connect 45 0 51 0;
#X connect 45 0 114 0;
#X connect 46 0 50 3;
#X connect 46 0 49 3;
#X connect 46 0 48 3;
#X connect 46 0 41 3;
#X connect 46 0 52 3;
#X connect 46 0 53 3;
#X connect 46 0 54 3;
#X connect 46 0 51 3;
#X connect 47 0 50 4;
#X connect 47 0 49 4;
#X connect 47 0 48 4;
#X connect 47 0 41 4;
#X connect 47 0 52 4;
#X connect 47 0 53 4;
#X connect 47 0 54 4;
#X connect 47 0 51 4;
#X connect 48 0 34 1;
#X connect 49 0 30 1;
#X connect 50 0 30 0;
#X connect 51 0 37 1;
#X connect 52 0 31 0;
#X connect 53 0 31 1;
#X connect 54 0 36 1;
#X connect 55 0 50 1;
#X connect 56 0 50 2;
#X connect 57 0 49 1;
#X connect 58 0 49 2;
#X connect 59 0 48 1;
#X connect 60 0 48 2;
#X connect 61 0 41 1;
#X connect 62 0 41 2;
#X connect 63 0 52 1;
#X connect 64 0 52 2;
#X connect 65 0 53 1;
#X connect 66 0 53 2;
#X connect 67 0 54 1;
#X connect 68 0 54 2;
#X connect 69 0 51 1;
#X connect 70 0 51 2;
#X connect 71 0 75 3;
#X connect 71 0 116 3;
#X connect 71 0 118 3;
#X connect 71 0 120 3;
#X connect 72 0 75 4;
#X connect 72 0 116 4;
#X connect 72 0 118 4;
#X connect 72 0 120 4;
#X connect 73 0 75 1;
#X connect 73 0 116 1;
#X connect 73 0 118 1;
#X connect 73 0 120 1;
#X connect 74 0 75 2;
#X connect 74 0 116 2;
#X connect 74 0 118 2;
#X connect 74 0 120 2;
#X connect 75 0 76 1;
#X connect 76 0 117 0;
#X connect 77 0 81 3;
#X connect 77 0 110 3;
#X connect 77 0 112 3;
#X connect 77 0 114 3;
#X connect 78 0 81 4;
#X connect 78 0 110 4;
#X connect 78 0 112 4;
#X connect 78 0 114 4;
#X connect 79 0 81 1;
#X connect 79 0 110 1;
#X connect 79 0 112 1;
#X connect 79 0 114 1;
#X connect 80 0 81 2;
#X connect 80 0 110 2;
#X connect 80 0 112 2;
#X connect 80 0 114 2;
#X connect 81 0 82 1;
#X connect 82 0 111 0;
#X connect 83 0 56 0;
#X connect 84 0 55 0;
#X connect 85 0 57 0;
#X connect 86 0 58 0;
#X connect 87 0 59 0;
#X connect 88 0 60 0;
#X connect 89 0 61 0;
#X connect 90 0 62 0;
#X connect 91 0 71 0;
#X connect 92 0 80 0;
#X connect 93 0 77 0;
#X connect 94 0 70 0;
#X connect 95 0 69 0;
#X connect 96 0 67 0;
#X connect 97 0 68 0;
#X connect 98 0 66 0;
#X connect 99 0 65 0;
#X connect 100 0 63 0;
#X connect 101 0 64 0;
#X connect 102 0 46 0;
#X connect 103 0 47 0;
#X connect 104 0 94 0;
#X connect 104 0 95 0;
#X connect 104 0 109 0;
#X connect 104 0 92 0;
#X connect 104 0 93 0;
#X connect 104 0 107 0;
#X connect 104 0 105 0;
#X connect 104 0 91 0;
#X connect 104 0 106 0;
#X connect 104 0 108 0;
#X connect 104 0 97 0;
#X connect 104 0 96 0;
#X connect 104 0 98 0;
#X connect 104 0 99 0;
#X connect 104 0 90 0;
#X connect 104 0 89 0;
#X connect 104 0 88 0;
#X connect 104 0 87 0;
#X connect 104 0 85 0;
#X connect 104 0 101 0;
#X connect 104 0 100 0;
#X connect 104 0 103 0;
#X connect 104 0 102 0;
#X connect 104 0 86 0;
#X connect 104 0 83 0;
#X connect 104 0 84 0;
#X connect 105 0 72 0;
#X connect 106 0 74 0;
#X connect 107 0 78 0;
#X connect 108 0 73 0;
#X connect 109 0 79 0;
#X connect 110 0 111 1;
#X connect 111 0 113 0;
#X connect 112 0 113 1;
#X connect 113 0 115 0;
#X connect 114 0 115 1;
#X connect 115 0 33 0;
#X connect 115 0 2 0;
#X connect 116 0 117 1;
#X connect 117 0 119 0;
#X connect 118 0 119 1;
#X connect 119 0 121 0;
#X connect 120 0 121 1;
#X connect 121 0 33 1;
#X connect 121 0 6 0;
